<svg xmlns="http://www.w3.org/2000/svg" id="app-store-apple-f1f919205b" width="220.623" height="71.361" viewBox="0 0 220.623 71.361">
    <defs>
        <style>
            .cls-1{fill:#fff}
        </style>
    </defs>
    <path id="Path_1279" d="M15 72.262h-1.684a22.887 22.887 0 0 1-3.549-.374 20.411 20.411 0 0 1-3.176-.934 13.261 13.261 0 0 1-2.615-1.868 8.421 8.421 0 0 1-1.868-2.616 8.959 8.959 0 0 1-.934-3.176A20.691 20.691 0 0 1 .8 59.745V13.229a22.889 22.889 0 0 1 .374-3.549 9.766 9.766 0 0 1 1.12-2.989 13.261 13.261 0 0 1 1.869-2.615 13.261 13.261 0 0 1 2.615-1.868 8.959 8.959 0 0 1 3.176-.934A20.692 20.692 0 0 1 13.5.9h195.4a25.527 25.527 0 0 1 3.549.374 20.411 20.411 0 0 1 3.176.934 10.393 10.393 0 0 1 4.483 4.483 9.226 9.226 0 0 1 .934 2.989 22.888 22.888 0 0 1 .374 3.549v46.516a25.526 25.526 0 0 1-.374 3.549 20.413 20.413 0 0 1-.934 3.176 13.261 13.261 0 0 1-1.868 2.615 8.42 8.42 0 0 1-2.615 1.868 6.3 6.3 0 0 1-3.176.934 20.692 20.692 0 0 1-3.549.374H15z" transform="translate(-0.8 -0.9)"/>
    <path id="Path_1280" d="M37.651 30.37a9.17 9.17 0 0 1 4.483-7.846 9.83 9.83 0 0 0-7.472-4.11c-3.176-.374-6.165 1.868-7.846 1.868s-4.11-1.868-6.725-1.868a10.153 10.153 0 0 0-8.406 5.044c-3.55 6.165-.935 15.505 2.615 20.549 1.681 2.429 3.736 5.231 6.352 5.231 2.615-.187 3.549-1.681 6.725-1.681s3.923 1.681 6.723 1.681 4.483-2.429 6.165-5.044a16.672 16.672 0 0 0 2.8-5.791 8.325 8.325 0 0 1-5.418-8.033zm-5.23-15.132A9.168 9.168 0 0 0 34.475 8.7a8.665 8.665 0 0 0-5.975 3.176 8.458 8.458 0 0 0-2.055 6.352 7.521 7.521 0 0 0 5.976-2.99zm37.922 27.835h-8.78l-2.055 6.352h-3.736l8.406-23.165h3.736l8.406 23.164h-3.735zm-7.846-2.8h7.1L66.046 30h-.186L62.5 40.271zm31.945.747c0 5.231-2.8 8.593-7.1 8.593a5.428 5.428 0 0 1-5.231-2.989v8.406h-3.548V32.612h3.363v2.8a6.269 6.269 0 0 1 5.418-2.989c4.109-.185 7.098 3.365 7.098 8.595zm-3.736 0c0-3.363-1.681-5.6-4.483-5.6-2.615 0-4.483 2.242-4.483 5.6s1.868 5.6 4.483 5.6c2.801.003 4.482-2.239 4.482-5.602zm22.23 0c0 5.231-2.8 8.593-7.1 8.593a5.428 5.428 0 0 1-5.231-2.989v8.406h-3.548V32.612h3.363v2.8a6.269 6.269 0 0 1 5.418-2.989c4.296-.185 7.098 3.365 7.098 8.595zm-3.549 0c0-3.363-1.681-5.6-4.483-5.6-2.615 0-4.483 2.242-4.483 5.6s1.868 5.6 4.483 5.6c2.801.003 4.482-2.239 4.482-5.602zm15.879 1.868c.187 2.242 2.429 3.736 5.6 3.736 2.989 0 5.044-1.494 5.044-3.549 0-1.868-1.308-2.8-4.3-3.549l-2.989-.747c-4.3-.934-6.165-2.989-6.165-6.165 0-3.923 3.549-6.725 8.406-6.725s8.22 2.8 8.406 6.725h-3.549c-.187-2.242-2.055-3.736-4.857-3.736s-4.67 1.494-4.67 3.549c0 1.681 1.308 2.615 4.3 3.363l2.615.56c4.67 1.121 6.725 2.989 6.725 6.352 0 4.3-3.363 7.1-8.967 7.1-5.231 0-8.593-2.615-8.78-6.912h3.176zM146.935 28.5v3.923h3.176v2.8h-3.176v9.341c0 1.494.56 2.055 2.055 2.055h1.121v2.8a6.355 6.355 0 0 1-1.868.187c-3.363 0-4.67-1.308-4.67-4.483v-9.709h-2.429v-2.8h2.429v-3.925h3.363zm5.231 12.516c0-5.231 3.176-8.593 8.033-8.593s8.033 3.363 8.033 8.593c0 5.418-3.176 8.593-8.033 8.593-5.044.002-8.033-3.36-8.033-8.591zm12.516 0c0-3.736-1.681-5.791-4.483-5.791s-4.483 2.055-4.483 5.791 1.681 5.791 4.483 5.791 4.483-2.239 4.483-5.789zm6.352-8.593h3.366v2.989a3.864 3.864 0 0 1 4.11-2.989 2.369 2.369 0 0 1 1.121.187v3.176a4.642 4.642 0 0 0-1.494-.187 3.512 3.512 0 0 0-3.549 3.363v10.649h-3.549V32.425zm24.659 11.956c-.374 2.989-3.363 5.231-7.286 5.231-4.857 0-8.033-3.363-8.033-8.593s2.989-8.78 7.846-8.78c4.67 0 7.659 3.176 7.659 8.406v1.121h-11.955v.187a4.53 4.53 0 0 0 3.923 4.857h.56a3.666 3.666 0 0 0 3.923-2.429h3.363zm-11.769-5.044h8.406a4.145 4.145 0 0 0-3.923-4.3h-.374a4.189 4.189 0 0 0-4.109 4.302z" class="cls-1" transform="translate(7.183 5.871)"/>
    <g id="Group_465" transform="translate(65.01 14.011)">
        <path id="Path_1281" d="M39.71 8.96a4.848 4.848 0 0 1 5.231 4.483v.934c0 3.549-1.868 5.6-5.231 5.6H35.6V8.774l4.11.187zm-2.242 9.714h2.055a3.538 3.538 0 0 0 3.736-3.363v-.747a3.553 3.553 0 0 0-2.989-3.923h-2.8v8.033zM47 15.872a3.941 3.941 0 0 1 7.846-.747v.747A3.941 3.941 0 0 1 47 16.62zm6.165 0q0-2.8-2.242-2.8c-1.494 0-2.242 1.121-2.242 2.8 0 1.868.747 2.989 2.242 2.989s2.237-1.12 2.237-2.989zm12.329 4.3h-1.686L62.127 14h-.187l-1.681 6.165h-1.681l-2.242-8.406h1.681l1.494 6.352h.189l1.681-6.352h1.681l1.681 6.352h.187l1.494-6.352H68.1l-2.61 8.41zm4.3-8.406h1.681v1.304h.187a2.693 2.693 0 0 1 2.429-1.494 2.741 2.741 0 0 1 2.989 2.615v5.978h-1.689v-5.044c0-1.308-.56-2.055-1.868-2.055a1.92 1.92 0 0 0-2.055 1.868v5.231h-1.682zM79.5 8.4h1.681v11.769H79.5zm3.923 7.472a3.941 3.941 0 0 1 7.846-.747v.747a3.941 3.941 0 1 1-7.846.747zm6.352 0q0-2.8-2.242-2.8c-1.494 0-2.242 1.121-2.242 2.8 0 1.868.747 2.989 2.242 2.989 1.308 0 2.242-1.12 2.242-2.989zm3.363 1.868c0-1.494 1.121-2.429 3.176-2.429l2.242-.187v-.747c0-.934-.56-1.308-1.681-1.308-.934 0-1.494.374-1.681.934h-1.683c.187-1.494 1.494-2.429 3.363-2.429 2.055 0 3.363 1.121 3.363 2.8v5.791h-1.682v-1.117h-.187a2.827 2.827 0 0 1-2.615 1.308 2.649 2.649 0 0 1-2.8-2.242c.187-.187.187-.187.187-.374zm5.417-.747v-.747l-2.055.187c-1.121 0-1.681.56-1.681 1.121 0 .747.747 1.121 1.494 1.121 1.121.374 2.055-.374 2.242-1.681zm3.736-1.121c0-2.615 1.308-4.3 3.549-4.3a2.981 2.981 0 0 1 2.615 1.494h.187V8.4h1.681v11.769h-1.681v-1.308h-.187a2.981 2.981 0 0 1-2.615 1.494c-2.054.001-3.549-1.68-3.549-4.483zm1.868 0q0 2.8 2.242 2.8c1.494 0 2.242-1.121 2.242-2.8s-.934-2.8-2.242-2.8c-1.494-.002-2.242 1.119-2.242 2.8zm12.89 0a3.941 3.941 0 0 1 7.846-.747v.747a3.941 3.941 0 0 1-7.846.747zm6.352 0q0-2.8-2.242-2.8c-1.494 0-2.242 1.121-2.242 2.8 0 1.868.747 2.989 2.242 2.989 1.308 0 2.241-1.12 2.241-2.989zm3.923-4.11h1.681v1.308h.187a2.693 2.693 0 0 1 2.429-1.494 2.741 2.741 0 0 1 2.989 2.615v5.978h-1.681v-5.044c0-1.308-.56-2.055-1.868-2.055a1.92 1.92 0 0 0-2.055 1.868v5.231h-1.681zm16.439-2.055v2.055h1.868v1.494h-1.868v4.3c0 .934.374 1.308 1.121 1.308h.56v1.308h-.934c-1.868 0-2.615-.56-2.615-2.242v-4.67h-1.308v-1.311h1.313V9.708h1.868zm4.11-1.308h1.681v4.67h.187a2.5 2.5 0 0 1 2.615-1.494 3.02 3.02 0 0 1 2.989 2.615v5.978h-1.681v-5.043c0-1.308-.56-2.055-1.868-2.055a1.92 1.92 0 0 0-2.055 1.868v5.231h-1.681V8.4zm17 9.527a3.43 3.43 0 0 1-3.549 2.429 3.912 3.912 0 0 1-3.924-3.735v-.56a3.692 3.692 0 0 1 3.363-4.3h.56c2.429 0 3.736 1.681 3.736 4.3v.56h-5.978v.187a2.158 2.158 0 0 0 2.055 2.429h.187a2.191 2.191 0 0 0 2.055-.934h1.494zm-5.978-2.8h4.3a2.219 2.219 0 0 0-1.868-2.242h-.187a2.576 2.576 0 0 0-2.242 2.242z" class="cls-1" transform="translate(-35.6 -8.4)"/>
    </g>
</svg>
