<svg xmlns="http://www.w3.org/2000/svg" width="252.193" height="74.724" viewBox="0 0 252.193 74.724">
    <defs>
        <linearGradient id="sykvelohla" x1=".907" x2="-.384" y1="-6.392" y2="-5.721" gradientUnits="objectBoundingBox">
            <stop offset="0" stop-color="#00a0ff"/>
            <stop offset=".007" stop-color="#00a1ff"/>
            <stop offset=".26" stop-color="#00beff"/>
            <stop offset=".512" stop-color="#00d2ff"/>
            <stop offset=".76" stop-color="#00dfff"/>
            <stop offset="1" stop-color="#00e3ff"/>
        </linearGradient>
        <linearGradient id="oy82jryhfb" x1="1.077" x2="-1.307" y1="-18.441" y2="-18.441" gradientUnits="objectBoundingBox">
            <stop offset="0" stop-color="#ffe000"/>
            <stop offset=".409" stop-color="#ffbd00"/>
            <stop offset=".775" stop-color="orange"/>
            <stop offset="1" stop-color="#ff9c00"/>
        </linearGradient>
        <linearGradient id="tvrjt3yc8c" x1=".863" x2="-.5" y1="-12.314" y2="-10.549" gradientUnits="objectBoundingBox">
            <stop offset="0" stop-color="#ff3a44"/>
            <stop offset="1" stop-color="#c31162"/>
        </linearGradient>
        <linearGradient id="k93rjlhdfd" x1="-.188" x2=".421" y1="-13.092" y2="-12.3" gradientUnits="objectBoundingBox">
            <stop offset="0" stop-color="#32a071"/>
            <stop offset=".069" stop-color="#2da771"/>
            <stop offset=".476" stop-color="#15cf74"/>
            <stop offset=".801" stop-color="#06e775"/>
            <stop offset="1" stop-color="#00f076"/>
        </linearGradient>
    </defs>
    <path d="M242.854 74.724H9.341A9.25 9.25 0 0 1 0 65.384V9.341A9.25 9.25 0 0 1 9.341 0h233.513a9.25 9.25 0 0 1 9.341 9.341v56.043a9.25 9.25 0 0 1-9.341 9.34z"/>
    <path fill="#fff" stroke="#fff" stroke-miterlimit="10" stroke-width="0.2px" d="M52.609 13.065A5.088 5.088 0 0 1 51.3 16.8a5.864 5.864 0 0 1-8.22 0 5.493 5.493 0 0 1-1.681-4.11 5.493 5.493 0 0 1 1.681-4.11 5.493 5.493 0 0 1 4.111-1.68 4.974 4.974 0 0 1 2.242.56 4.068 4.068 0 0 1 1.681 1.308l-.934.932a3.484 3.484 0 0 0-2.989-1.308A3.717 3.717 0 0 0 44.2 9.7a3.848 3.848 0 0 0-1.308 3.176 3.848 3.848 0 0 0 1.308 3.178 4.81 4.81 0 0 0 2.989 1.308 4.1 4.1 0 0 0 3.176-1.308 3.094 3.094 0 0 0 .934-2.242h-4.11v-1.494h5.417v.747zM61.2 8.394h-5.042v3.549h4.67v1.308h-4.67V16.8H61.2v1.5h-6.536V7.087H61.2zm6.165 9.9h-1.493v-9.9H62.7V7.087h7.846v1.307h-3.179zm8.593 0V7.087h1.494V18.3zm7.846 0h-1.493v-9.9h-3.175V7.087h7.659v1.307h-3.176zm17.749-1.494a5.864 5.864 0 0 1-8.22 0 5.493 5.493 0 0 1-1.681-4.11 5.493 5.493 0 0 1 1.681-4.11 5.864 5.864 0 0 1 8.22 0 5.493 5.493 0 0 1 1.681 4.11 5.493 5.493 0 0 1-1.681 4.11zm-7.1-.934a4.408 4.408 0 0 0 2.989 1.308 3.717 3.717 0 0 0 2.989-1.308 4.507 4.507 0 0 0 1.308-3.176 3.848 3.848 0 0 0-1.308-3.176 4.408 4.408 0 0 0-2.989-1.308 3.717 3.717 0 0 0-2.989 1.308 4.507 4.507 0 0 0-1.308 3.176 3.848 3.848 0 0 0 1.309 3.177zm10.836 2.434V7.087h1.681l5.418 8.78v-8.78h1.494V18.3h-1.494L106.6 9.142V18.3h-1.308z" transform="translate(35.94 5.99)"/>
    <path fill="#fff" d="M91.539 25.88a7.859 7.859 0 0 0-8.033 8.033 7.973 7.973 0 0 0 8.033 8.033 7.859 7.859 0 0 0 8.033-8.033 7.75 7.75 0 0 0-8.033-8.033zm0 12.7a4.637 4.637 0 0 1-4.483-4.857 4.637 4.637 0 0 1 4.483-4.857 4.525 4.525 0 0 1 4.483 4.857 4.637 4.637 0 0 1-4.483 4.86zm-17.374-12.7a7.859 7.859 0 0 0-8.033 8.033 7.973 7.973 0 0 0 8.033 8.033 7.859 7.859 0 0 0 8.035-8.033 7.75 7.75 0 0 0-8.035-8.033zm0 12.7a4.637 4.637 0 0 1-4.483-4.857 4.637 4.637 0 0 1 4.483-4.857 4.525 4.525 0 0 1 4.483 4.857 4.637 4.637 0 0 1-4.483 4.86zM53.429 28.309v3.363h8.033a7.064 7.064 0 0 1-1.868 4.3 8.269 8.269 0 0 1-6.165 2.428 8.7 8.7 0 0 1-8.78-8.967 8.812 8.812 0 0 1 8.78-8.967 9.263 9.263 0 0 1 6.165 2.429l2.429-2.429a11.971 11.971 0 0 0-8.407-3.366A12.6 12.6 0 0 0 41.1 29.429a12.6 12.6 0 0 0 12.516 12.33 10.751 10.751 0 0 0 8.594-3.549 11.246 11.246 0 0 0 2.99-7.846 7 7 0 0 0-.187-2.055H53.429zm84.812 2.615c-.747-1.868-2.615-5.044-6.725-5.044s-7.472 3.176-7.472 8.033a7.818 7.818 0 0 0 7.846 8.033 7.663 7.663 0 0 0 6.538-3.549l-2.615-1.868a4.554 4.554 0 0 1-3.923 2.242 4.053 4.053 0 0 1-3.923-2.429l10.648-4.483-.374-.934zm-10.835 2.615a4.538 4.538 0 0 1 4.11-4.67 3.3 3.3 0 0 1 2.989 1.681l-7.1 2.989zm-8.78 7.659h3.549V17.847h-3.549zm-5.6-13.637a6.151 6.151 0 0 0-4.3-1.868 8.027 8.027 0 0 0-7.659 8.033 7.735 7.735 0 0 0 7.659 7.846 5.364 5.364 0 0 0 4.11-1.868h.187v1.121c0 2.989-1.681 4.67-4.3 4.67a4.15 4.15 0 0 1-3.923-2.8L101.813 44a7.707 7.707 0 0 0 7.1 4.67c4.11 0 7.472-2.429 7.472-8.22v-14.2h-3.363v1.308zm-4.11 11.022a4.637 4.637 0 0 1-4.483-4.857 4.637 4.637 0 0 1 4.483-4.857c2.429 0 4.3 2.055 4.3 4.857s-1.875 4.857-4.304 4.857zm45.582-20.736h-8.406V41.2h3.549v-8.78h4.857a7.295 7.295 0 1 0 0-14.571zm.187 11.209h-5.044v-8.033h5.044a4.1 4.1 0 0 1 4.11 3.923 4.275 4.275 0 0 1-4.114 4.11zm21.483-3.363c-2.615 0-5.231 1.121-6.165 3.549l3.176 1.308a3.3 3.3 0 0 1 3.176-1.681 3.511 3.511 0 0 1 3.736 2.989v.187a7.41 7.41 0 0 0-3.549-.934c-3.363 0-6.725 1.868-6.725 5.231 0 3.176 2.8 5.231 5.791 5.231a5.257 5.257 0 0 0 4.483-2.242h.187V41.2h3.363v-8.968c-.374-4.11-3.549-6.538-7.472-6.538zm-.374 12.89c-1.121 0-2.8-.56-2.8-2.055 0-1.868 2.055-2.429 3.736-2.429a7.224 7.224 0 0 1 3.176.747 4.351 4.351 0 0 1-4.116 3.737zm19.615-12.329l-3.923 10.088h-.186l-4.11-10.088h-3.74l6.165 14.2-3.55 7.846h3.549l9.527-22.044zM164.021 41.2h3.549V17.847h-3.549z" transform="translate(35.679 14.845)"/>
    <path fill="url(#sykvelohla)" d="M10.747 7.5A3.652 3.652 0 0 0 10 10.115V51.4a3.7 3.7 0 0 0 .934 2.615l.187.187 23.164-23.164v-.374z" transform="translate(8.681 6.511)"/>
    <path fill="url(#oy82jryhfb)" d="M30.559 31.679L22.9 24.02v-.56l7.659-7.66.187.187 9.154 5.231c2.615 1.494 2.615 3.923 0 5.418z" transform="translate(19.88 13.716)"/>
    <path fill="url(#tvrjt3yc8c)" d="M41.6 27.846L33.751 20 10.4 43.351c.934.934 2.242.934 3.923.187L41.6 27.846" transform="translate(9.028 17.362)"/>
    <path fill="url(#k93rjlhdfd)" d="M41.6 23.291L14.323 7.785c-1.681-.934-2.989-.747-3.923.187l23.351 23.165 7.849-7.846z" transform="translate(9.028 6.225)"/>
    <path d="M41.411 24.1L14.323 39.418a3.055 3.055 0 0 1-3.736 0l-.187.187.187.187a3.055 3.055 0 0 0 3.736 0z" opacity="0.2" transform="translate(9.028 20.921)"/>
    <path d="M10.747 42.978A3.652 3.652 0 0 1 10 40.362v.187a3.7 3.7 0 0 0 .934 2.615v-.187zM51.1 22.429l-9.341 5.231.187.187 9.154-5.232A3.105 3.105 0 0 0 52.966 20c0 .934-.747 1.681-1.866 2.429z" opacity="0.12" transform="translate(8.681 17.362)"/>
    <path fill="#fff" d="M14.67 7.964L51.1 28.7c1.121.747 1.868 1.494 1.868 2.429a3.105 3.105 0 0 0-1.868-2.616L14.67 7.964C12.055 6.283 10 7.4 10 10.393v.187c0-2.803 2.055-4.11 4.67-2.616z" opacity="0.25" transform="translate(8.681 6.233)"/>
</svg>
