<svg xmlns="http://www.w3.org/2000/svg" id="Group_446" width="320" height="72.817" viewBox="0 0 320 72.817">
    <defs>
        <style>
            .cls-1{fill:#fff}
        </style>
    </defs>
    <g id="Group_3">
        <path id="Path_1" d="M556.908 749.43a24.238 24.238 0 0 0-4.656-5.781l-27.365 47.406 11 19.056 20.955-36.3c.019-.037.044-.069.063-.106s.031-.056.049-.087a24.268 24.268 0 0 0-.046-24.188z" class="cls-1" transform="translate(-511.614 -737.294)"/>
        <path id="Path_2" d="M613.494 743.649l-27.365 47.406 11 19.056 20.955-36.3c.019-.037.044-.069.062-.106s.031-.056.05-.087a24.245 24.245 0 0 0-4.705-29.967z" class="cls-1" transform="translate(-540.193 -737.294)"/>
        <path id="Path_3" d="M524.276 731.734a24.272 24.272 0 0 0-21.076 36.322c.018.031.031.056.05.087s.043.069.062.106l4.63 8.022 24.826-43a24.225 24.225 0 0 0-8.492-1.537z" class="cls-1" transform="translate(-500 -731.734)"/>
        <path id="Path_4" d="M706.042 767.252a29.617 29.617 0 0 0-12.578-2.813q-9.886 0-16.816 3.548a23.908 23.908 0 0 0-10.375 9.771 28.632 28.632 0 0 0-3.442 14.1 29.33 29.33 0 0 0 3.442 14.3 24.569 24.569 0 0 0 10.375 9.983q6.936 3.669 16.816 3.671a53.931 53.931 0 0 0 15.048-1.755 58.091 58.091 0 0 0 10.064-3.915l-5.452-9.448a45.632 45.632 0 0 1-15.671 3.087 16.313 16.313 0 0 1-9.771-3.1 13.191 13.191 0 0 1-5.409-7.985h37.667v-3.784q0-10.083-3.915-16.468a23 23 0 0 0-9.983-9.192zm-24.3 20.09a11.476 11.476 0 0 1 2.919-8.165 9.951 9.951 0 0 1 7.643-3.124 8.974 8.974 0 0 1 7.325 3.068 12.488 12.488 0 0 1 2.552 8.221z" class="cls-1" transform="translate(-575.988 -746.996)"/>
        <path id="Path_5" d="M829.247 767.252a29.621 29.621 0 0 0-12.584-2.813q-9.878 0-16.811 3.548a23.872 23.872 0 0 0-10.374 9.771 28.634 28.634 0 0 0-3.442 14.1 29.332 29.332 0 0 0 3.442 14.3 24.531 24.531 0 0 0 10.374 9.983q6.937 3.669 16.811 3.671a53.983 53.983 0 0 0 15.055-1.755 57.818 57.818 0 0 0 10.058-3.915l-5.452-9.448a45.6 45.6 0 0 1-15.665 3.087 16.3 16.3 0 0 1-9.771-3.1 13.175 13.175 0 0 1-5.415-7.985h37.672v-3.784q0-10.083-3.915-16.468a23 23 0 0 0-9.983-9.192zm-24.3 20.09a11.5 11.5 0 0 1 2.913-8.165 9.969 9.969 0 0 1 7.643-3.124 8.988 8.988 0 0 1 7.332 3.068 12.491 12.491 0 0 1 2.545 8.221z" class="cls-1" transform="translate(-633.483 -746.996)"/>
        <path id="Rectangle_7" d="M0 0H18.967V72.817H0z" class="cls-1" transform="translate(218.258 0)"/>
        <path id="Path_6" d="M993.593 807.491l22.8-39.508h-51.447v13.972h24.048l-22.8 39.508h43.385l8.066-13.972z" class="cls-1" transform="translate(-716.975 -748.65)"/>
    </g>
    <g id="Group_4" transform="translate(300.667)">
        <path id="Path_7" d="M1063.751 741.388a9.712 9.712 0 0 1 14.57-8.352 9.336 9.336 0 0 1 3.5 3.55 9.818 9.818 0 0 1-.038 9.7 9.409 9.409 0 0 1-3.537 3.506 9.66 9.66 0 0 1-14.493-8.409zm1.778 0a7.741 7.741 0 0 0 1.073 3.988 7.824 7.824 0 0 0 2.877 2.871 7.713 7.713 0 0 0 3.926 1.042 7.963 7.963 0 0 0 6.884-3.95 7.865 7.865 0 0 0-.012-7.888 7.926 7.926 0 0 0-6.872-3.95 7.9 7.9 0 0 0-7.876 7.888zm8.815-5.081a3.374 3.374 0 0 1 2.312.781 2.586 2.586 0 0 1 .889 2.039 2.813 2.813 0 0 1-.775 2.019 3.077 3.077 0 0 1-2.07.915v.051a2.728 2.728 0 0 1 1.022.642 9.73 9.73 0 0 1 1.277 1.836l1.219 2.058h-2.337l-.483-.915a15.228 15.228 0 0 0-1.175-2.051 4.274 4.274 0 0 0-.959-1.055 2.015 2.015 0 0 0-1.131-.273h-.864v4.293h-1.893v-10.34zm-.736 4.484a2.292 2.292 0 0 0 1.428-.388 1.306 1.306 0 0 0 .5-1.1 1.25 1.25 0 0 0-.528-1.086 2.37 2.37 0 0 0-1.4-.375h-2.338v2.947z" class="cls-1" transform="translate(-1063.751 -731.734)"/>
    </g>
</svg>
